# xmcd
#
# Track frame offsets:
#	150
#	12865
#	26154
#	39106
#	50851
#	62392
#	74680
#	87589
#	101918
#	114480
#	127718
#	142521
#	156783
#	168994
#	183409
#	196729
#	210568
#	224678
#	237704
#	249974
#	261868
#	273965
#	287285
#	304517
#	319069
#
# Disc length: 4411 seconds
#
# Revision: 6
# Processed by: cddbd v1.5PL3 Copyright (c) Steve Scherf et al.
# Submitted via: EasyCDDAExtractor 6.2.0.3
#
DISCID=60113919
DTITLE=Various Artist - Chess Blues Disc 1 (1947-1952
DYEAR=1900
DGENRE=Blues
TTITLE0=Clarence Samuels/Lollypop Mama
TTITLE1=Andrew Tibbs/Bilbo Is Dead
TTITLE2=Sunnyland Slim/Johnson Machine Gun
TTITLE3=Sunnyland Slim/Fly Right, Little Girl
TTITLE4=Muddy Waters/Little Anna Mae
TTITLE5=Muddy Waters/I Can't Be Satisfied
TTITLE6=Robert Nighthawk/My Sweet Lovin' Woman
TTITLE7=Muddy Waters/I Feel Like Going Home
TTITLE8=Sunnyland Slim/She Ain't Nowhere
TTITLE9=St. Louis Jimmy/Florida Hurricane
TTITLE10=Forest City Joe/Memory of Sonny Boy
TTITLE11=Forrest Sykes/Tonky Boogie
TTITLE12=Laura Rucker/Cryin' the Blues
TTITLE13=Baby Face Leroy/My Head Can't Rest Anymore
TTITLE14=Little Johnny Jones/Big Town Playboy
TTITLE15=Robert Nighthawk/Sweet Black Angel
TTITLE16=Muddy Waters/Rollin' Stone
TTITLE17=Jimmy Rogers/Luedella
TTITLE18=Memphis Slim/Mother Earth
TTITLE19=Dr. Isaiah Ross/Dr. Ross' Boogie
TTITLE20=Johnny Shines/Joliet Blues
TTITLE21=Howlin' Wolf/Moanin' at Midnight
TTITLE22=Muddy Waters/All Night Long (alternate)
TTITLE23=Arbee Stidham/Mr. Commissioner (alternate)
TTITLE24=Howlin' Wolf/Gettin' Old and Grey
EXTD=ID3G:   0
EXTT0=
EXTT1=
EXTT2=
EXTT3=
EXTT4=
EXTT5=
EXTT6=
EXTT7=
EXTT8=
EXTT9=
EXTT10=
EXTT11=
EXTT12=
EXTT13=
EXTT14=
EXTT15=
EXTT16=
EXTT17=
EXTT18=
EXTT19=
EXTT20=
EXTT21=
EXTT22=
EXTT23=
EXTT24=
PLAYORDER=
